<svg viewBox="0 0 503.99 229.37" xmlns="http://www.w3.org/2000/svg"><path d="m102.91 40.35c-.11-23.85-29.06-24-39.81-6.74-2.32-4.61-3.92-1.74-5.61-3.45-4.49-10.29-20.57-8.03-26.68-.16-4.93 6.18-5.38 14.13-1.3 20.24a17.18 17.18 0 0 0 9 6.61c2.86.94 5.67 1.61 4.57.4-14-4-17.8-16.44-10.7-26 5.25-6.63 18.88-9.15 23.44-.81a2.65 2.65 0 0 0 1.76 1.79c.81.28 2.06-.12 2.76.2a3.91 3.91 0 0 1 1.78 3.07c.56 10-13 4.63-10.83 14.41-1.17-9.62 11.21-3.22 12.07-13.47a1 1 0 0 1 .34-.69c.85-.68 2 .11 2.55-2a.46.46 0 0 1 .87-.09c1.83 3.82-.81 9.85-3.32 12.73-1.12 1.29-4.35 2.66-4.2 3.28s2.64-.29 3.83-.94c-.48 4.26-2.51 9.31-7.16 10.06 2.49 1 5.46-1.42 6.63-3.59 1.33-2.01 1.47-5.2 2.1-7.56 2.51-2.93 6.1-10.15 3.66-13.94a2 2 0 0 1 .53-2.63c10.8-7.87 28-4.86 27.86 10.86-.29 4.87-3.15 9.23-6.57 12.76a.81.81 0 0 1 -1.41-.62c.4-4.27-.53-10.76-3.14-12.39a.52.52 0 0 0 -.28.67 21.47 21.47 0 0 1 1.57 9.37c-.47 6.49-4 9.66-7.85 12.05a21.35 21.35 0 0 1 -6.55 2.7c-17.62 4.03-27.06-7.47-27.34-7.61a.25.25 0 0 0 -.31.4c6.61 7.47 14.23 12.52 26.72 9.91a40.53 40.53 0 0 0 10.85-4.11c9.25-5 18-12.4 20-22.93v.2a19.39 19.39 0 0 0 .17-1.98z" fill="#2a6bbf"/><path d="m46.51 44.65c.76.08 2.32-.09 2.32-.62s-1-.14-1.82-.24c-2.64-.31-2.6-3.6-.25-2.92.18.06.33-.3.17-.43-3.43-2.22-4.49 3.49-.42 4.21z" fill="#2a6bbf"/><path d="m65.25 229.32a60.81 60.81 0 0 1 -15.5-1.43 73.81 73.81 0 0 1 -7.59-2.11 63.29 63.29 0 0 1 -7.36-3 68.77 68.77 0 0 1 -7-4 60.62 60.62 0 0 1 -6.48-5 59.53 59.53 0 0 1 -5.86-5.78 56.71 56.71 0 0 1 -4.92-6.69 63.82 63.82 0 0 1 -7-15 83.32 83.32 0 0 1 -3.2-16l-.19-2-.1-2.21c-.06-.69 0-1.41 0-2.14s0-1.43 0-2.11a73.92 73.92 0 0 1 .76-8.26 66.66 66.66 0 0 1 4.64-15.89 71.3 71.3 0 0 1 8.2-14.16 88 88 0 0 1 10.76-11.92 106.4 106.4 0 0 1 12.32-9.88c2.17-1.48 4.38-2.87 6.66-4.17l6.67-3.72c4.53-2.44 9.11-4.62 13.66-6.8l6.75-3.34c2.22-1.14 4.39-2.26 6.5-3.54 1.06-.63 2.11-1.27 3.14-1.94s2-1.37 3-2.09q3.04-2.14 5.89-4.44a92.46 92.46 0 0 0 10.46-10.1 64.4 64.4 0 0 0 8.11-11.6 40.44 40.44 0 0 0 4.43-12.52 27.63 27.63 0 0 0 .31-6.27c-.1-1-.23-2.05-.39-3.07-.13-.56-.22-1.13-.33-1.69a9.81 9.81 0 0 0 -.29-1.31 22.17 22.17 0 0 0 -2.36-5.14 24.33 24.33 0 0 0 -3.73-4.81 20.89 20.89 0 0 0 -10.32-5.85 19.79 19.79 0 0 0 -6-.38 25.87 25.87 0 0 0 -6.22 1.51 40.32 40.32 0 0 0 -11.83 7.29c-.92.78-1.82 1.6-2.7 2.44l-.9.87a3.63 3.63 0 0 1 -2.13.85 3.73 3.73 0 0 1 -2.21-.48 4 4 0 0 1 -.87-.68l-.33-.3a47.12 47.12 0 0 0 -5.7-4.32 48.75 48.75 0 0 0 -6.2-3.3 32.46 32.46 0 0 0 -3.18-1.22c-1-.36-2.1-.71-3.15-1a25.32 25.32 0 0 0 -3.15-.54 21.35 21.35 0 0 0 -3.08-.21 18.94 18.94 0 0 0 -3 .27 17.78 17.78 0 0 0 -2.94.65 24.61 24.61 0 0 0 -5.66 2.6 31.36 31.36 0 0 0 -5.17 4.15c-.08.08-.17.16-.25.25a20.19 20.19 0 0 0 -1.53 1.67c-.1.13-.21.26-.31.41a18.34 18.34 0 0 0 -1.66 2.64 21.25 21.25 0 0 0 -2 6.07 28 28 0 0 0 1.29 13.31 47.66 47.66 0 0 0 6.62 12.59c5.69 7.86 13 14.7 20.93 20.78a1 1 0 0 1 -1.16 1.74c-8.92-5-17.4-10.93-24.48-18.88a58.37 58.37 0 0 1 -4.92-6.34 42.46 42.46 0 0 1 -4-7.21 35.44 35.44 0 0 1 -3.06-17 30.4 30.4 0 0 1 2.14-8.97 28.65 28.65 0 0 1 2.18-4.18c.4-.67.91-1.35 1.4-2s1-1.18 1.45-1.71a34.3 34.3 0 0 1 6.61-5.81 27.61 27.61 0 0 1 8.38-3.8 27 27 0 0 1 9.24-.88 29.19 29.19 0 0 1 8.68 2 31.2 31.2 0 0 1 3.88 1.78 40.76 40.76 0 0 1 3.54 2.23 47 47 0 0 1 6.2 5.23 57.15 57.15 0 0 1 5.3 5.92l.3.39s-.08-.05-.12-.06a1.12 1.12 0 0 0 -.36-.09.59.59 0 0 0 -.41.1l-.08.05.15-.19.29-.39c.79-1 1.6-2 2.46-3a45.83 45.83 0 0 1 12.28-10.39 30.56 30.56 0 0 1 8-3.09 26.48 26.48 0 0 1 8.82-.56 29.38 29.38 0 0 1 16 7.26 29.92 29.92 0 0 1 9.55 14.93 37.15 37.15 0 0 1 -.14 17.17 47.85 47.85 0 0 1 -6.79 15 72.1 72.1 0 0 1 -10.32 12 100.15 100.15 0 0 1 -12.08 9.76 144.76 144.76 0 0 1 -13.16 7.92c-2.24 1.19-4.47 2.46-6.73 3.58l-6.6 3.69c-2.16 1.28-4.31 2.55-6.41 3.88s-4.18 2.69-6.24 4l-6.14 4.21c-2 1.39-3.91 2.86-5.77 4.41a88.6 88.6 0 0 0 -10.34 10.06 79.28 79.28 0 0 0 -8.32 11.53 68.41 68.41 0 0 0 -6 12.58c-.76 2.18-1.41 4.39-2 6.61a62 62 0 0 0 -1.34 6.75 60.21 60.21 0 0 0 -.7 6.85 58 58 0 0 0 .08 6.83 70.47 70.47 0 0 0 2.18 13.83 58.44 58.44 0 0 0 4.9 12.86 56.12 56.12 0 0 0 8 11.27 52.57 52.57 0 0 0 5 4.87 59.65 59.65 0 0 0 5.66 4.29 73.6 73.6 0 0 0 12.77 6.71c2.25.92 4.55 1.78 6.9 2.5a67.32 67.32 0 0 0 7.13 1.85 1 1 0 0 1 .81 1.17 1 1 0 0 1 -.92.8z" fill="#b03891"/><g fill="#2a6bbf"><path d="m51 122.28v42.86h-7.86v-42.86z"/><path d="m61.39 165.14v-42.86h8.9l11.06 18.38a116.76 116.76 0 0 1 7.32 14.34h.12c-.51-5.72-.7-11.25-.7-17.8v-14.92h7.25v42.86h-8.07l-11.19-18.82a148.19 148.19 0 0 1 -7.7-14.82l-.19.07c.32 5.53.38 11.19.38 18.25v15.32z"/><path d="m114 128.83h-12.26v-6.55h32.37v6.55h-12.34v36.31h-7.77z"/><path d="m164.45 146.13h-16.15v12.59h18v6.42h-25.82v-42.86h24.92v6.43h-17.1v11.06h16.15z"/><path d="m174.78 122.86a74 74 0 0 1 11.82-.86c6.17 0 10.37 1 13.23 3.43a10.85 10.85 0 0 1 3.69 8.58 11.44 11.44 0 0 1 -7.76 10.75v.19c3.05 1.15 4.89 4.13 6 8.27 1.34 5.34 2.48 10.3 3.38 11.95h-8.14c-.64-1.27-1.65-4.77-2.86-10.11-1.21-5.59-3.24-7.38-7.69-7.5h-3.95v17.61h-7.75zm7.75 19h4.64c5.28 0 8.59-2.8 8.59-7.06 0-4.71-3.31-6.87-8.39-6.87a22.72 22.72 0 0 0 -4.84.38z"/><path d="m212.66 165.14v-42.86h8.9l11.07 18.38a118.06 118.06 0 0 1 7.31 14.34h.13c-.51-5.72-.7-11.25-.7-17.8v-14.92h7.25v42.86h-8.08l-11.19-18.82a148.09 148.09 0 0 1 -7.69-14.82l-.19.07c.31 5.53.38 11.19.38 18.25v15.32z"/><path d="m265.16 153-3.69 12.14h-8.07l13.73-42.86h10l13.87 42.86h-8.39l-3.84-12.14zm12.27-5.92-3.37-10.55c-.82-2.61-1.52-5.53-2.16-8h-.13c-.63 2.48-1.27 5.46-2 8l-3.31 10.55z"/><path d="m302 128.83h-12.24v-6.55h32.37v6.55h-12.34v36.31h-7.79z"/><path d="m336.31 122.28v42.86h-7.82v-42.86z"/><path d="m384.94 143.27c0 14.37-8.71 22.57-20.54 22.57-12.08 0-19.71-9.22-19.71-21.81 0-13.16 8.27-22.44 20.35-22.44 12.52 0 19.9 9.47 19.9 21.68zm-32 .63c0 8.71 4.39 15.64 11.89 15.64s11.82-7 11.82-15.95c0-8.08-4-15.71-11.82-15.71s-11.83 7.19-11.83 16.02z"/><path d="m393.34 165.14v-42.86h8.91l11.06 18.38a118.06 118.06 0 0 1 7.31 14.34h.13c-.51-5.72-.7-11.25-.7-17.8v-14.92h7.25v42.86h-8.08l-11.22-18.82a150.21 150.21 0 0 1 -7.69-14.82l-.19.07c.32 5.53.38 11.19.38 18.25v15.32z"/><path d="m445.84 153-3.68 12.14h-8.08l13.73-42.86h10l13.92 42.86h-8.39l-3.89-12.14zm12.28-5.92-3.37-10.55c-.83-2.61-1.53-5.53-2.17-8h-.12c-.64 2.48-1.28 5.46-2 8l-3.3 10.55z"/><path d="m478.56 122.28h7.82v36.31h17.62v6.55h-25.44z"/><path d="m42.23 202.74a16 16 0 0 0 8.11 2.26c4.63 0 7.33-2.45 7.33-6 0-3.28-1.87-5.15-6.6-7-5.72-2-9.26-5-9.26-9.93 0-5.46 4.53-9.52 11.34-9.52a15.85 15.85 0 0 1 7.75 1.72l-1.25 3.73a14.06 14.06 0 0 0 -6.65-1.62c-4.78 0-6.6 2.86-6.6 5.25 0 3.27 2.13 4.89 7 6.76 5.92 2.29 8.94 5.15 8.94 10.29 0 5.41-4 10.09-12.27 10.09a18.25 18.25 0 0 1 -9-2.23z"/><path d="m72.72 173.2v20.8c0 7.85 3.48 11.18 8.16 11.18 5.2 0 8.53-3.43 8.53-11.18v-20.8h4.59v20.44c0 10.76-5.66 15.18-13.26 15.18-7.17 0-12.58-4.1-12.58-15v-20.62z"/><path d="m102.5 173.67a46.83 46.83 0 0 1 8.68-.73c4.84 0 8 .89 10.14 2.86a8.74 8.74 0 0 1 2.76 6.66 9.2 9.2 0 0 1 -6.61 8.94v.16c2.71.94 4.32 3.43 5.15 7.07 1.14 4.89 2 8.27 2.7 9.62h-4.68c-.57-1-1.35-4-2.34-8.37-1-4.84-2.91-6.66-7-6.81h-4.3v15.18h-4.5zm4.52 16h4.63c4.83 0 7.9-2.66 7.9-6.66 0-4.52-3.27-6.5-8.06-6.55a19.17 19.17 0 0 0 -4.47.41z"/><path d="m131.46 173.67a46.9 46.9 0 0 1 8.68-.73c4.84 0 8 .89 10.14 2.86a8.74 8.74 0 0 1 2.76 6.66 9.19 9.19 0 0 1 -6.6 8.94v.16c2.7.94 4.31 3.43 5.14 7.07 1.15 4.89 2 8.27 2.71 9.62h-4.68c-.57-1-1.35-4-2.34-8.37-1-4.84-2.91-6.66-7-6.81h-4.27v15.18h-4.52zm4.52 16h4.63c4.84 0 7.91-2.66 7.91-6.66 0-4.52-3.28-6.5-8.06-6.55a19.21 19.21 0 0 0 -4.48.41z"/><path d="m190.21 190.36c0 12.07-7.33 18.46-16.27 18.46-9.26 0-15.76-7.17-15.76-17.78 0-11.13 6.92-18.41 16.28-18.41 9.54 0 15.75 7.37 15.75 17.73zm-27.19.58c0 7.48 4 14.19 11.18 14.19s11.23-6.6 11.23-14.56c0-7-3.64-14.25-11.18-14.25s-11.25 6.92-11.25 14.62z"/><path d="m223.85 206.69a32.56 32.56 0 0 1 -10.76 1.93c-5.31 0-9.67-1.36-13.11-4.63-3-2.91-4.88-7.59-4.88-13.05.05-10.46 7.22-18.1 19-18.1a21.64 21.64 0 0 1 8.73 1.61l-1.09 3.69a18.2 18.2 0 0 0 -7.75-1.5c-8.53 0-14.09 5.3-14.09 14.09s5.36 14.14 13.52 14.14a14.78 14.78 0 0 0 6-.93v-10.46h-7.12v-3.64h11.54z"/><path d="m237.16 197.23-3.64 11h-4.68l11.91-35.05h5.46l12 35.05h-4.83l-3.75-11zm11.5-3.54-3.44-10.09c-.78-2.28-1.3-4.36-1.82-6.39h-.1c-.52 2.08-1.09 4.21-1.77 6.34l-3.43 10.14z"/><path d="m287 207.11a22.53 22.53 0 0 1 -9.26 1.66c-9.88 0-17.32-6.24-17.32-17.73 0-11 7.44-18.41 18.31-18.41a18.85 18.85 0 0 1 8.32 1.56l-1.05 3.69a16.53 16.53 0 0 0 -7.07-1.45c-8.22 0-13.68 5.25-13.68 14.45 0 8.58 4.94 14.1 13.47 14.1a18.17 18.17 0 0 0 7.38-1.46z"/><path d="m302.21 208.25v-14.87l-11.08-20.18h5.15l4.94 9.68c1.35 2.65 2.39 4.78 3.49 7.22h.1c1-2.28 2.18-4.57 3.54-7.22l5-9.68h5.15l-11.75 20.13v14.92z"/><path d="m361.39 207.11a22.56 22.56 0 0 1 -9.26 1.66c-9.88 0-17.32-6.24-17.32-17.73 0-11 7.44-18.41 18.31-18.41a18.85 18.85 0 0 1 8.32 1.56l-1.09 3.69a16.54 16.54 0 0 0 -7.08-1.45c-8.21 0-13.67 5.25-13.67 14.45 0 8.58 4.94 14.1 13.47 14.1a18.17 18.17 0 0 0 7.38-1.46z"/><path d="m385.29 191.82h-13.62v12.64h15.18v3.79h-19.71v-35.05h18.93v3.8h-14.4v11.08h13.62z"/><path d="m393 208.25v-35.05h4.94l11.24 17.74a101.62 101.62 0 0 1 6.29 11.38h.1c-.41-4.68-.52-8.94-.52-14.4v-14.72h4.27v35.05h-4.58l-11.13-17.78a112.92 112.92 0 0 1 -6.55-11.7h-.16c.26 4.42.37 8.63.37 14.46v15z"/><path d="m434.88 177.05h-10.66v-3.85h25.95v3.85h-10.71v31.2h-4.58z"/><path d="m473.22 191.82h-13.62v12.64h15.19v3.79h-19.71v-35.05h18.92v3.8h-14.4v11.08h13.62z"/><path d="m480.89 173.67a46.9 46.9 0 0 1 8.68-.73c4.84 0 8 .89 10.14 2.86a8.74 8.74 0 0 1 2.76 6.66 9.19 9.19 0 0 1 -6.6 8.94v.16c2.7.94 4.31 3.43 5.14 7.07 1.15 4.89 2 8.27 2.71 9.62h-4.72c-.58-1-1.35-4-2.34-8.37-1-4.84-2.91-6.66-7-6.81h-4.27v15.18h-4.52zm4.52 16h4.59c4.84 0 7.91-2.66 7.91-6.66 0-4.52-3.28-6.5-8.07-6.55a19.17 19.17 0 0 0 -4.47.41z"/></g></svg>