<svg viewBox="0 0 124.43 229.37" xmlns="http://www.w3.org/2000/svg"><g fill="#fff"><path d="m102.91 40.35c-.11-23.85-29.06-24-39.81-6.74-2.32-4.61-3.92-1.74-5.61-3.45-4.49-10.29-20.57-8.03-26.68-.16-4.93 6.18-5.38 14.13-1.3 20.24a17.18 17.18 0 0 0 9 6.61c2.86.94 5.67 1.61 4.57.4-14-4-17.8-16.44-10.7-26 5.25-6.63 18.88-9.15 23.44-.81a2.65 2.65 0 0 0 1.76 1.79c.81.28 2.06-.12 2.76.2a3.91 3.91 0 0 1 1.78 3.07c.56 10-13 4.63-10.83 14.41-1.17-9.62 11.21-3.22 12.07-13.47a1 1 0 0 1 .34-.69c.85-.68 2 .11 2.55-2a.46.46 0 0 1 .87-.09c1.83 3.82-.81 9.85-3.32 12.73-1.12 1.29-4.35 2.66-4.2 3.28s2.64-.29 3.83-.94c-.48 4.26-2.51 9.31-7.16 10.06 2.49 1 5.46-1.42 6.63-3.59 1.33-2.01 1.47-5.2 2.1-7.56 2.51-2.93 6.1-10.15 3.66-13.94a2 2 0 0 1 .53-2.63c10.8-7.87 28-4.86 27.86 10.86-.29 4.87-3.15 9.23-6.57 12.76a.81.81 0 0 1 -1.41-.62c.4-4.27-.53-10.76-3.14-12.39a.52.52 0 0 0 -.28.67 21.47 21.47 0 0 1 1.57 9.37c-.47 6.49-4 9.66-7.85 12.05a21.35 21.35 0 0 1 -6.55 2.7c-17.62 4.03-27.06-7.47-27.34-7.61a.25.25 0 0 0 -.31.4c6.61 7.47 14.23 12.52 26.72 9.91a40.53 40.53 0 0 0 10.85-4.11c9.25-5 18-12.4 20-22.93v.2a19.39 19.39 0 0 0 .17-1.98z"/><path d="m46.51 44.65c.76.08 2.32-.09 2.32-.62s-1-.14-1.82-.24c-2.64-.31-2.6-3.6-.25-2.92.18.06.33-.3.17-.43-3.43-2.22-4.49 3.49-.42 4.21z"/><path d="m65.25 229.32a60.81 60.81 0 0 1 -15.5-1.43 73.81 73.81 0 0 1 -7.59-2.11 63.29 63.29 0 0 1 -7.36-3 68.77 68.77 0 0 1 -7-4 60.62 60.62 0 0 1 -6.48-5 59.53 59.53 0 0 1 -5.86-5.78 56.71 56.71 0 0 1 -4.92-6.69 63.82 63.82 0 0 1 -7-15 83.32 83.32 0 0 1 -3.2-16l-.19-2-.1-2.21c-.06-.69 0-1.41 0-2.14s0-1.43 0-2.11a73.92 73.92 0 0 1 .76-8.26 66.66 66.66 0 0 1 4.64-15.89 71.3 71.3 0 0 1 8.2-14.16 88 88 0 0 1 10.76-11.92 106.4 106.4 0 0 1 12.32-9.88c2.17-1.48 4.38-2.87 6.66-4.17l6.67-3.72c4.53-2.44 9.11-4.62 13.66-6.8l6.75-3.34c2.22-1.14 4.39-2.26 6.5-3.54 1.06-.63 2.11-1.27 3.14-1.94s2-1.37 3-2.09q3.04-2.14 5.89-4.44a92.46 92.46 0 0 0 10.46-10.1 64.4 64.4 0 0 0 8.11-11.6 40.44 40.44 0 0 0 4.43-12.52 27.63 27.63 0 0 0 .31-6.27c-.1-1-.23-2.05-.39-3.07-.13-.56-.22-1.13-.33-1.69a9.81 9.81 0 0 0 -.29-1.31 22.17 22.17 0 0 0 -2.36-5.14 24.33 24.33 0 0 0 -3.73-4.81 20.89 20.89 0 0 0 -10.32-5.85 19.79 19.79 0 0 0 -6-.38 25.87 25.87 0 0 0 -6.22 1.51 40.32 40.32 0 0 0 -11.83 7.29c-.92.78-1.82 1.6-2.7 2.44l-.9.87a3.63 3.63 0 0 1 -2.13.85 3.73 3.73 0 0 1 -2.21-.48 4 4 0 0 1 -.87-.68l-.33-.3a47.12 47.12 0 0 0 -5.7-4.32 48.75 48.75 0 0 0 -6.2-3.3 32.46 32.46 0 0 0 -3.18-1.22c-1-.36-2.1-.71-3.15-1a25.32 25.32 0 0 0 -3.15-.54 21.35 21.35 0 0 0 -3.08-.21 18.94 18.94 0 0 0 -3 .27 17.78 17.78 0 0 0 -2.94.65 24.61 24.61 0 0 0 -5.66 2.6 31.36 31.36 0 0 0 -5.17 4.15c-.08.08-.17.16-.25.25a20.19 20.19 0 0 0 -1.53 1.67c-.1.13-.21.26-.31.41a18.34 18.34 0 0 0 -1.66 2.64 21.25 21.25 0 0 0 -2 6.07 28 28 0 0 0 1.29 13.31 47.66 47.66 0 0 0 6.62 12.59c5.69 7.86 13 14.7 20.93 20.78a1 1 0 0 1 -1.16 1.74c-8.92-5-17.4-10.93-24.48-18.88a58.37 58.37 0 0 1 -4.92-6.34 42.46 42.46 0 0 1 -4-7.21 35.44 35.44 0 0 1 -3.06-17 30.4 30.4 0 0 1 2.14-8.97 28.65 28.65 0 0 1 2.18-4.18c.4-.67.91-1.35 1.4-2s1-1.18 1.45-1.71a34.3 34.3 0 0 1 6.61-5.81 27.61 27.61 0 0 1 8.38-3.8 27 27 0 0 1 9.24-.88 29.19 29.19 0 0 1 8.68 2 31.2 31.2 0 0 1 3.88 1.78 40.76 40.76 0 0 1 3.54 2.23 47 47 0 0 1 6.2 5.23 57.15 57.15 0 0 1 5.3 5.92l.3.39s-.08-.05-.12-.06a1.12 1.12 0 0 0 -.36-.09.59.59 0 0 0 -.41.1l-.08.05.15-.19.29-.39c.79-1 1.6-2 2.46-3a45.83 45.83 0 0 1 12.28-10.39 30.56 30.56 0 0 1 8-3.09 26.48 26.48 0 0 1 8.82-.56 29.38 29.38 0 0 1 16 7.26 29.92 29.92 0 0 1 9.55 14.93 37.15 37.15 0 0 1 -.14 17.17 47.85 47.85 0 0 1 -6.79 15 72.1 72.1 0 0 1 -10.32 12 100.15 100.15 0 0 1 -12.08 9.76 144.76 144.76 0 0 1 -13.16 7.92c-2.24 1.19-4.47 2.46-6.73 3.58l-6.6 3.69c-2.16 1.28-4.31 2.55-6.41 3.88s-4.18 2.69-6.24 4l-6.14 4.21c-2 1.39-3.91 2.86-5.77 4.41a88.6 88.6 0 0 0 -10.34 10.06 79.28 79.28 0 0 0 -8.32 11.53 68.41 68.41 0 0 0 -6 12.58c-.76 2.18-1.41 4.39-2 6.61a62 62 0 0 0 -1.34 6.75 60.21 60.21 0 0 0 -.7 6.85 58 58 0 0 0 .08 6.83 70.47 70.47 0 0 0 2.18 13.83 58.44 58.44 0 0 0 4.9 12.86 56.12 56.12 0 0 0 8 11.27 52.57 52.57 0 0 0 5 4.87 59.65 59.65 0 0 0 5.66 4.29 73.6 73.6 0 0 0 12.77 6.71c2.25.92 4.55 1.78 6.9 2.5a67.32 67.32 0 0 0 7.13 1.85 1 1 0 0 1 .81 1.17 1 1 0 0 1 -.92.8z"/><path d="m40.89 188.83c-1.44 0-3.17 1.1-3.17-20.52 0-28.48 3-27.44 4-27.44h6.23c.75 0 2.19-.18 2.19.92 0 .58-3 10.2-3 21.33a111.27 111.27 0 0 0 2.88 25.08c0 .57-.35.63-.87.63z"/><path d="m70.44 147.78c-2.88 0-6.57 1.45-6.57 4.79 0 4.15 5.71 5.76 8.88 6.86 12.1 4 14.58 9.86 14.58 15.33 0 6.69-4.78 14.93-17 14.93-8.18 0-16.48-4.38-16.48-13.54 0-4.9 2.94-7.79 3.51-7.79 1 0 0 11.71 12.4 11.71 4.38 0 8.18-1.91 8.18-5.48 0-4.21-5.18-5.94-8.53-7-12.62-3.92-14-9.62-14-14.52s3.33-13.07 15.03-13.07c8.36 0 14.3 4.44 14.3 6.11s-3 6.86-4.61 6.86c-1.44.03-3.69-5.19-9.69-5.19z"/><path d="m90.59 166.17c0-12.51 7-26.17 21-26.17 5 0 12.74 2.14 12.74 8.36 0 3.34-2.31 5.25-5.94 5.25-2.36 0 .81-5.42-6.51-5.42-8.42 0-12 8.59-12 15.79 0 11 7.49 15.45 12.51 15.45 9.39 0 10.2-8.41 10.72-8.41.8 0 1.27 4.61 1.27 5.18 0 8.54-6.58 13.49-14.65 13.49-13.03 0-19.14-11.87-19.14-23.52z"/></g></svg>